<svg width="512" height="512" viewBox="0 0 512 512" fill="none" xmlns="http://www.w3.org/2000/svg">
<rect width="512" height="512" rx="128" fill="#F8FAFC"/>
<path d="M335.086 153.371H177.914C164.357 153.371 153.371 164.357 153.371 177.914V335.086C153.371 348.643 164.357 359.629 177.914 359.629H335.086C348.643 359.629 359.629 348.643 359.629 335.086V177.914C359.629 164.357 348.643 153.371 335.086 153.371Z" fill="#1E293B"/>
<path d="M335.086 153.371L266.514 221.943H197.943V290.514L153.371 335.086V177.914C153.371 164.357 164.357 153.371 177.914 153.371H335.086Z" fill="#334155"/>
<path d="M177.914 359.629L246.486 291.057H315.057V222.486L359.629 177.914V335.086C359.629 348.643 348.643 359.629 335.086 359.629H177.914Z" fill="#475569"/>
<path fill-rule="evenodd" clip-rule="evenodd" d="M280.229 235.657H225.371V290.514H280.229V235.657ZM307.657 208.229H197.943V317.943H307.657V208.229Z" fill="#F8FAFC"/>
</svg>